<mxfile host="app.diagrams.net" agent="Mozilla/5.0 (Windows NT 10.0; Win64; x64; rv:133.0) Gecko/20100101 Firefox/133.0" version="25.0.3">
  <diagram name="Page-1" id="iHFXkXEs4-JT-WjJ9Qy4">
    <mxGraphModel dx="1764" dy="920" grid="1" gridSize="10" guides="1" tooltips="1" connect="1" arrows="1" fold="1" page="1" pageScale="1" pageWidth="850" pageHeight="1100" math="0" shadow="0">
      <root>
        <mxCell id="0" />
        <mxCell id="1" parent="0" />
        <mxCell id="clAMtKueekqdC2-6VS8K-23" style="edgeStyle=none;rounded=0;orthogonalLoop=1;jettySize=auto;html=1;entryX=0.5;entryY=1;entryDx=0;entryDy=0;endArrow=none;endFill=0;" edge="1" parent="1" source="clAMtKueekqdC2-6VS8K-1" target="clAMtKueekqdC2-6VS8K-13">
          <mxGeometry relative="1" as="geometry" />
        </mxCell>
        <mxCell id="clAMtKueekqdC2-6VS8K-1" value="Pelanggan" style="rounded=0;whiteSpace=wrap;html=1;" vertex="1" parent="1">
          <mxGeometry x="120" y="170" width="120" height="60" as="geometry" />
        </mxCell>
        <mxCell id="clAMtKueekqdC2-6VS8K-24" style="edgeStyle=none;rounded=0;orthogonalLoop=1;jettySize=auto;html=1;entryX=0.5;entryY=1;entryDx=0;entryDy=0;endArrow=none;endFill=0;" edge="1" parent="1" source="clAMtKueekqdC2-6VS8K-4" target="clAMtKueekqdC2-6VS8K-7">
          <mxGeometry relative="1" as="geometry" />
        </mxCell>
        <mxCell id="clAMtKueekqdC2-6VS8K-4" value="Menu" style="rounded=0;whiteSpace=wrap;html=1;" vertex="1" parent="1">
          <mxGeometry x="485" y="170" width="120" height="60" as="geometry" />
        </mxCell>
        <mxCell id="clAMtKueekqdC2-6VS8K-19" style="edgeStyle=none;rounded=0;orthogonalLoop=1;jettySize=auto;html=1;entryX=0;entryY=0.5;entryDx=0;entryDy=0;endArrow=none;endFill=0;" edge="1" parent="1" source="clAMtKueekqdC2-6VS8K-5" target="clAMtKueekqdC2-6VS8K-6">
          <mxGeometry relative="1" as="geometry" />
        </mxCell>
        <mxCell id="clAMtKueekqdC2-6VS8K-28" style="edgeStyle=none;rounded=0;orthogonalLoop=1;jettySize=auto;html=1;entryX=0.5;entryY=0;entryDx=0;entryDy=0;endArrow=none;endFill=0;" edge="1" parent="1" source="clAMtKueekqdC2-6VS8K-5" target="clAMtKueekqdC2-6VS8K-11">
          <mxGeometry relative="1" as="geometry" />
        </mxCell>
        <mxCell id="clAMtKueekqdC2-6VS8K-29" style="edgeStyle=none;rounded=0;orthogonalLoop=1;jettySize=auto;html=1;entryX=0.5;entryY=0;entryDx=0;entryDy=0;endArrow=none;endFill=0;" edge="1" parent="1" source="clAMtKueekqdC2-6VS8K-5" target="clAMtKueekqdC2-6VS8K-12">
          <mxGeometry relative="1" as="geometry" />
        </mxCell>
        <mxCell id="clAMtKueekqdC2-6VS8K-5" value="Pesanan" style="rounded=0;whiteSpace=wrap;html=1;" vertex="1" parent="1">
          <mxGeometry x="120" y="400" width="120" height="60" as="geometry" />
        </mxCell>
        <mxCell id="clAMtKueekqdC2-6VS8K-22" style="edgeStyle=none;rounded=0;orthogonalLoop=1;jettySize=auto;html=1;entryX=0.5;entryY=1;entryDx=0;entryDy=0;endArrow=none;endFill=0;" edge="1" parent="1" source="clAMtKueekqdC2-6VS8K-6" target="clAMtKueekqdC2-6VS8K-4">
          <mxGeometry relative="1" as="geometry" />
        </mxCell>
        <mxCell id="clAMtKueekqdC2-6VS8K-25" style="edgeStyle=none;rounded=0;orthogonalLoop=1;jettySize=auto;html=1;entryX=0;entryY=0.5;entryDx=0;entryDy=0;endArrow=none;endFill=0;" edge="1" parent="1" source="clAMtKueekqdC2-6VS8K-6" target="clAMtKueekqdC2-6VS8K-9">
          <mxGeometry relative="1" as="geometry" />
        </mxCell>
        <mxCell id="clAMtKueekqdC2-6VS8K-26" style="edgeStyle=none;rounded=0;orthogonalLoop=1;jettySize=auto;html=1;entryX=0.5;entryY=0;entryDx=0;entryDy=0;endArrow=none;endFill=0;" edge="1" parent="1" source="clAMtKueekqdC2-6VS8K-6" target="clAMtKueekqdC2-6VS8K-10">
          <mxGeometry relative="1" as="geometry" />
        </mxCell>
        <mxCell id="clAMtKueekqdC2-6VS8K-27" style="edgeStyle=none;rounded=0;orthogonalLoop=1;jettySize=auto;html=1;entryX=0.5;entryY=0;entryDx=0;entryDy=0;endArrow=none;endFill=0;" edge="1" parent="1" source="clAMtKueekqdC2-6VS8K-6" target="clAMtKueekqdC2-6VS8K-8">
          <mxGeometry relative="1" as="geometry" />
        </mxCell>
        <mxCell id="clAMtKueekqdC2-6VS8K-6" value="&lt;div&gt;Detail&lt;/div&gt;&lt;div&gt;Pesanan&lt;br&gt;&lt;/div&gt;" style="rhombus;whiteSpace=wrap;html=1;" vertex="1" parent="1">
          <mxGeometry x="490" y="390" width="110" height="80" as="geometry" />
        </mxCell>
        <mxCell id="clAMtKueekqdC2-6VS8K-7" value="Id_menu" style="ellipse;whiteSpace=wrap;html=1;" vertex="1" parent="1">
          <mxGeometry x="495" y="60" width="100" height="60" as="geometry" />
        </mxCell>
        <mxCell id="clAMtKueekqdC2-6VS8K-8" value="Id_DP" style="ellipse;whiteSpace=wrap;html=1;" vertex="1" parent="1">
          <mxGeometry x="440" y="520" width="100" height="60" as="geometry" />
        </mxCell>
        <mxCell id="clAMtKueekqdC2-6VS8K-9" value="Id_menu" style="ellipse;whiteSpace=wrap;html=1;" vertex="1" parent="1">
          <mxGeometry x="660" y="360" width="100" height="60" as="geometry" />
        </mxCell>
        <mxCell id="clAMtKueekqdC2-6VS8K-10" value="Id_pesanan" style="ellipse;whiteSpace=wrap;html=1;" vertex="1" parent="1">
          <mxGeometry x="640" y="500" width="110" height="60" as="geometry" />
        </mxCell>
        <mxCell id="clAMtKueekqdC2-6VS8K-11" value="Id_pesanan" style="ellipse;whiteSpace=wrap;html=1;" vertex="1" parent="1">
          <mxGeometry x="180" y="520" width="110" height="60" as="geometry" />
        </mxCell>
        <mxCell id="clAMtKueekqdC2-6VS8K-12" value="Id_pelanggan" style="ellipse;whiteSpace=wrap;html=1;" vertex="1" parent="1">
          <mxGeometry x="10" y="490" width="110" height="70" as="geometry" />
        </mxCell>
        <mxCell id="clAMtKueekqdC2-6VS8K-13" value="Id_pelanggan" style="ellipse;whiteSpace=wrap;html=1;" vertex="1" parent="1">
          <mxGeometry x="125" y="60" width="110" height="60" as="geometry" />
        </mxCell>
        <mxCell id="clAMtKueekqdC2-6VS8K-15" value="" style="rounded=0;orthogonalLoop=1;jettySize=auto;html=1;endArrow=none;endFill=0;" edge="1" parent="1" source="clAMtKueekqdC2-6VS8K-14" target="clAMtKueekqdC2-6VS8K-5">
          <mxGeometry relative="1" as="geometry" />
        </mxCell>
        <mxCell id="clAMtKueekqdC2-6VS8K-16" style="rounded=0;orthogonalLoop=1;jettySize=auto;html=1;entryX=0.5;entryY=1;entryDx=0;entryDy=0;endArrow=none;endFill=0;" edge="1" parent="1" source="clAMtKueekqdC2-6VS8K-14" target="clAMtKueekqdC2-6VS8K-1">
          <mxGeometry relative="1" as="geometry" />
        </mxCell>
        <mxCell id="clAMtKueekqdC2-6VS8K-14" value="" style="rhombus;whiteSpace=wrap;html=1;" vertex="1" parent="1">
          <mxGeometry x="155" y="280" width="50" height="70" as="geometry" />
        </mxCell>
      </root>
    </mxGraphModel>
  </diagram>
</mxfile>
